#!OML:ASF \\sashay\E\basketball\basketball\Project 1\Capture day 1\Session 1\Subject.ASF
:FULLY-SPECIFIED
:DEGREES
436
root -28.9006 12.4688 2.31687 -197.987 56.8774 -201.705
lowerback 15.8737 0.0504861 -14.4863
upperback 3.00246 -2.11279 -4.21394
thorax -5.25131 -0.622745 4.00605
lowerneck 3.82927 -15.9898 -14.1129
upperneck -3.04918 -22.0409 32.8396
head 4.16799 -11.0293 11.3774
rclavicle 7.11649e-014 4.45278e-014
rhumerus -40.8338 41.0326 -103.868
rradius 108.155
rwrist 9.11472
rhand -40.53 413.28
rfingers 7.12502
rthumb -13.4786 23.7361
lclavicle 7.11649e-014 4.45278e-014
lhumerus -47.0172 -26.2896 110.117
lradius 106.393
lwrist 22.3149
lhand -26.39 26.031
lfingers 7.12502
lthumb 0.169086 56.0107
rfemur -28.709 -26.6556 -19.6008
rtibia 102.782
rfoot -15.9906 0.723888
rtoes -41.8806
lfemur 3.95412 5.90736 7.37381
ltibia 35.4857
lfoot -15.502 -4.71572
ltoes -52.4232
437
root -28.7251 12.5328 2.35082 -201.299 58.6894 -204.473
lowerback 15.7715 -0.203729 -14.014
upperback 3.13651 -2.3435 -4.53434
thorax -5.04596 -0.757455 3.44388
lowerneck 3.15446 -15.38 -13.2529
upperneck -2.03887 -21.238 31.4812
head 4.06872 -10.5266 10.8488
rclavicle -5.22804e-014 -2.18663e-014
rhumerus -41.576 40.5309 -102.915
rradius 108.46
rwrist 7.43712
rhand -38.4781 413.187
rfingers 7.12502
rthumb -11.5004 23.5221
lclavicle -5.22804e-014 -2.18663e-014
lhumerus -47.6566 -27.558 110.52
lradius 103.671
lwrist 22.5069
lhand -24.5381 23.6229
lfingers 7.12502
lthumb 1.95763 53.5937
rfemur -29.1714 -25.5972 -19.5848
rtibia 102.749
rfoot -16.6578 1.14745
rtoes -42.5962
lfemur 8.37378 3.85611 5.93483
ltibia 31.6058
lfoot -12.7697 -1.38009
ltoes -55.5921
438
root -28.5428 12.5903 2.38677 -204.084 60.4901 -207.313
lowerback 15.1279 -0.557379 -13.3974
upperback 3.08376 -2.63344 -4.65818
thorax -4.74754 -0.935816 3.01518
lowerneck 2.39541 -14.7507 -12.5991
upperneck -0.990166 -20.4364 29.8959
head 4.01685 -10.0298 10.2612
rclavicle -3.58806e-014 -1.21656e-013
rhumerus -42.2985 40.2659 -101.752
rradius 108.505
rwrist 7.22251
rhand -37.2829 412.545
rfingers 7.12502
rthumb -10.3476 22.8193
lclavicle -3.58806e-014 -1.21656e-013
lhumerus -47.9116 -28.7406 110.897
lradius 100.944
lwrist 22.8144
lhand -23.7997 23.1622
lfingers 7.12502
lthumb 2.6708 53.1252
rfemur -30.3821 -24.925 -19.1033
rtibia 102.866
rfoot -17.2498 1.84765
rtoes -42.4665
lfemur 11.9992 2.12769 4.37509
ltibia 27.873
lfoot -9.95563 2.00339
ltoes -58.8016
439
root -28.3526 12.6529 2.42957 -206.525 62.1462 -210.453
lowerback 14.0338 -1.01116 -12.8289
upperback 2.81502 -3.03623 -4.61968
thorax -4.41598 -1.17344 2.78922
lowerneck 1.67589 -13.9674 -12.3159
upperneck 0.104713 -19.451 28.3291
head 4.00413 -9.45799 9.7687
rclavicle 4.77083e-015 -9.93923e-015
rhumerus -43.0564 40.2131 -100.489
rradius 108.552
rwrist 7.71466
rhand -36.0909 411.091
rfingers 7.12502
rthumb -9.19751 21.312
lclavicle 4.77083e-015 -9.93923e-015
lhumerus -47.8657 -29.6659 111.092
lradius 98.1414
lwrist 22.7366
lhand -23.9155 23.3907
lfingers 7.12502
lthumb 2.55894 53.3551
rfemur -32.2653 -24.6263 -18.3249
rtibia 103.051
rfoot -17.5615 2.68402
rtoes -42.6344
lfemur 14.9243 0.420946 2.60495
ltibia 24.1135
lfoot -7.02059 4.49497
ltoes -57.8942
440
root -28.1586 12.701 2.49411 -210.145 63.9843 -214.869
lowerback 12.8902 -1.25448 -12.7282
upperback 2.58454 -3.21172 -4.5898
thorax -4.01771 -1.29342 2.75942
lowerneck 0.884071 -13.1216 -12.035
upperneck 1.032 -18.3376 26.9407
head 3.97862 -8.83354 9.34851
rclavicle 1.0635e-014 3.06128e-014
rhumerus -43.0396 40.0522 -98.8407
rradius 108.198
rwrist 8.7656
rhand -34.8854 410.997
rfingers 7.12502
rthumb -8.03417 21.1699
lclavicle 1.0635e-014 3.06128e-014
lhumerus -47.7194 -30.2403 110.968
lradius 95.3564
lwrist 21.7985
lhand -24.1531 22.9588
lfingers 7.12502
lthumb 2.32948 52.9259
rfemur -34.4872 -23.9298 -17.4941
rtibia 103.388
rfoot -18.0321 2.75543
rtoes -44.2029
lfemur 17.9059 -0.730511 0.572958
ltibia 20.4686
lfoot -4.36589 7.15785
ltoes -54.8581
441
root -27.9657 12.7419 2.54993 -214.781 65.4863 -220.295
lowerback 11.9258 -1.47436 -12.7181
upperback 2.35208 -3.39343 -4.57375
thorax -3.7114 -1.40641 2.76496
lowerneck 0.176639 -12.3558 -11.626
upperneck 1.48563 -17.2439 25.5009
head 3.81341 -8.26129 8.89278
rclavicle 3.885e-014 3.27995e-014
rhumerus -43.0361 40.4895 -97.5715
rradius 107.907
rwrist 9.01277
rhand -34.4595 408.543
rfingers 7.12502
rthumb -7.62312 18.7002
lclavicle 3.885e-014 3.27995e-014
lhumerus -47.324 -30.5283 110.73
lradius 92.853
lwrist 20.9412
lhand -23.0525 23.2857
lfingers 7.12502
lthumb 3.39244 53.2385
rfemur -36.4706 -23.3603 -17.1218
rtibia 103.714
rfoot -18.804 2.43374
rtoes -46.5318
lfemur 20.6711 -1.59719 -1.9722
ltibia 17.0819
lfoot -1.30393 10.2995
ltoes -53.6885
442
root -27.7693 12.792 2.63469 -217.761 68.3327 -224.47
lowerback 10.4199 -1.51866 -11.4672
upperback 2.01867 -3.16126 -4.09915
thorax -3.31527 -1.35213 2.50879
lowerneck -0.575045 -11.5945 -11.0179
upperneck 1.78822 -16.125 23.9007
head 3.60131 -7.68861 8.3512
rclavicle 1.85118e-014 -4.47266e-015
rhumerus -42.3931 40.731 -96.016
rradius 107.544
rwrist 10.0113
rhand -33.5382 407.364
rfingers 7.12502
rthumb -6.73378 17.4912
lclavicle 1.85118e-014 -4.47266e-015
lhumerus -46.7103 -30.9278 110.264
lradius 90.1786
lwrist 19.1454
lhand -21.7821 22.6668
lfingers 7.12502
lthumb 4.6192 52.5965
rfemur -39.8205 -21.8073 -13.8985
rtibia 104.114
rfoot -18.9282 1.73246
rtoes -47.7888
lfemur 22.8243 -1.34727 -2.68296
ltibia 14.2531
lfoot 1.25569 13.6847
ltoes -51.6909
443
root -27.5693 12.8415 2.72149 -222.468 70.0086 -229.911
lowerback 9.34083 -1.65467 -10.8276
upperback 2.17968 -3.11904 -3.85875
thorax -2.57408 -1.39143 2.36354
lowerneck -1.55071 -10.8499 -10.4658
upperneck 1.76566 -14.9912 22.6079
head 3.39603 -7.10798 7.90851
rclavicle -1.2921e-015 9.93923e-015
rhumerus -40.8688 40.8462 -94.0208
rradius 107.31
rwrist 10.8017
rhand -30.7174 405.819
rfingers 7.12502
rthumb -4.01023 15.8771
lclavicle -1.2921e-015 9.93923e-015
lhumerus -45.3386 -31.1806 109.041
lradius 87.8287
lwrist 18.165
lhand -19.8123 21.8994
lfingers 7.12502
lthumb 6.52103 51.779
rfemur -41.4217 -20.6419 -12.2009
rtibia 104.209
rfoot -19.5232 1.44312
rtoes -48.6688
lfemur 24.3026 -1.5239 -4.19971
ltibia 12.9264
lfoot 2.46815 17.3392
ltoes -46.6018
444
root -27.3666 12.8917 2.80181 -228.397 71.2255 -236.469
lowerback 8.31055 -1.75042 -10.4962
upperback 2.57594 -3.04136 -3.51636
thorax -1.59272 -1.42145 2.48294
lowerneck -2.63206 -10.1344 -10.2358
upperneck 1.44613 -13.8633 21.4591
head 3.18412 -6.54278 7.56077
rclavicle 3.16068e-014 7.95139e-016
rhumerus -39.1609 41.613 -91.9949
rradius 106.611
rwrist 13.3355
rhand -30.0002 401.643
rfingers 7.12502
rthumb -3.31768 11.6894
lclavicle 3.16068e-014 7.95139e-016
lhumerus -43.7278 -31.4364 107.985
lradius 85.3645
lwrist 15.9876
lhand -18.8716 21.418
lfingers 7.12502
lthumb 7.42905 51.2676
rfemur -42.3388 -19.5786 -11.0286
rtibia 104.059
rfoot -20.369 1.4482
rtoes -48.7093
lfemur 24.702 -1.71903 -6.16601
ltibia 13.6397
lfoot 4.28166 19.7777
ltoes -45.2508
445
root -27.1733 12.9368 2.90661 -235.759 72.7524 -245.575
lowerback 7.92826 -1.58903 -10.6205
upperback 1.53147 -2.92936 -2.70467
thorax -2.44824 -1.32595 3.39876
lowerneck -3.12176 -9.23253 -10.6004
upperneck 1.9412 -12.6032 19.9087
head 3.10927 -5.93073 7.21573
rclavicle -1.98785e-014 -5.08889e-014
rhumerus -39.4316 43.0881 -91.1724
rradius 105.825
rwrist 14.717
rhand -29.2197 400.168
rfingers 7.12502
rthumb -2.56393 10.2035
lclavicle -1.98785e-014 -5.08889e-014
lhumerus -44.0398 -30.4879 108.36
lradius 83.0436
lwrist 13.4802
lhand -17.2368 21.2098
lfingers 7.12502
lthumb 9.00682 50.9975
rfemur -45.0799 -18.1499 -9.10522
rtibia 104.117
rfoot -20.3885 3.47703
rtoes -43.7996
lfemur 23.1916 -0.622468 -7.73857
ltibia 16.1777
lfoot 5.94026 20.5659
ltoes -45.5244
446
root -26.9858 12.9904 3.00829 -243.216 74.0225 -254.467
lowerback 6.53807 -1.55063 -10.0676
upperback 1.82147 -2.64455 -2.04478
thorax -1.40119 -1.26119 3.70138
lowerneck -4.28197 -8.43413 -10.4852
upperneck 1.31146 -11.3109 18.6583
head 2.82953 -5.29739 6.86989
rclavicle -1.72943e-014 -5.1684e-014
rhumerus -36.5287 44.4946 -88.7628
rradius 104.351
rwrist 15.7654
rhand -28.8919 400.033
rfingers 7.12502
rthumb -2.24732 10.0655
lclavicle -1.72943e-014 -5.1684e-014
lhumerus -42.3152 -30.5171 107.441
lradius 80.4718
lwrist 11.1749
lhand -15.6138 20.2328
lfingers 7.12502
lthumb 10.5727 49.9468
rfemur -47.0335 -16.6453 -7.00363
rtibia 103.701
rfoot -20.1721 4.44409
rtoes -36.5586
lfemur 21.1294 0.329358 -8.86354
ltibia 19.8234
lfoot 7.04846 20.4049
ltoes -42.6785
447
root -26.8239 13.0442 3.08875 -247.825 74.7465 -259.658
lowerback 6.63211 -1.81848 -9.07369
upperback 2.19122 -2.92515 -1.15501
thorax -1.03533 -1.44051 4.08929
lowerneck -5.25589 -7.71175 -10.4953
upperneck 0.275034 -10.082 17.2072
head 2.42028 -4.71868 6.48961
rclavicle 2.66371e-014 -6.36111e-015
rhumerus -33.8674 46.3098 -86.3211
rradius 102.484
rwrist 16.3076
rhand -28.7566 399.163
rfingers 7.12502
rthumb -2.1166 9.19366
lclavicle 2.66371e-014 -6.36111e-015
lhumerus -40.9892 -30.0342 106.99
lradius 78.1929
lwrist 8.96224
lhand -15.3283 20.8344
lfingers 7.12502
lthumb 10.8481 50.5342
rfemur -46.9746 -16.1878 -5.30121
rtibia 102.778
rfoot -20.9006 2.59728
rtoes -33.9511
lfemur 19.0266 0.157901 -9.72109
ltibia 24.0196
lfoot 9.16423 19.1417
ltoes -34.6867
448
root -26.6763 13.086 3.1576 -252.27 75.2228 -264.093
lowerback 7.71256 -2.06686 -7.99852
upperback 2.61613 -3.25037 -0.309283
thorax -1.16208 -1.61091 4.43059
lowerneck -6.18511 -6.99728 -10.5891
upperneck -0.83002 -8.87027 15.8221
head 2.00978 -4.13762 6.14599
rclavicle 9.14409e-015 1.59028e-015
rhumerus -30.9534 47.6156 -83.6871
rradius 100.08
rwrist 17.6786
rhand -28.5283 398.847
rfingers 7.12502
rthumb -1.89619 8.87565
lclavicle 9.14409e-015 1.59028e-015
lhumerus -40.1572 -29.4604 106.812
lradius 76.1135
lwrist 7.04098
lhand -15.6008 22.1354
lfingers 7.12502
lthumb 10.5853 51.8488
rfemur -45.8675 -15.8409 -4.07936
rtibia 101.43
rfoot -21.9731 -0.473542
rtoes -34.9221
lfemur 17.1932 -0.133789 -10.5782
ltibia 28.519
lfoot 6.39313 15.6322
ltoes -37.7687
